<?xml version="1.0" encoding="utf-8"?>
<!-- Generator: Adobe Illustrator 24.1.3, SVG Export Plug-In . SVG Version: 6.00 Build 0)  -->
<svg version="1.1" id="Layer_1" xmlns="http://www.w3.org/2000/svg" xmlns:xlink="http://www.w3.org/1999/xlink" x="0px" y="0px"
	 viewBox="0 0 448 448" style="enable-background:new 0 0 448 448;" xml:space="preserve">
<style type="text/css">
	.st0{fill:#E8EAED;}
</style>
<path class="st0" d="M421,387.8c10.3,10.3,11.3,26.1,2,35.3c-9.2,9.2-24.9,8.3-35.3-2L224,257.2L60.2,421
	c-10.3,10.3-26.1,11.3-35.3,2c-9.2-9.2-8.3-24.9,2-35.3L190.8,224L27,60.2C16.7,49.9,15.7,34.2,25,25c9.2-9.2,24.9-8.3,35.3,2
	L224,190.8L387.8,27c10.3-10.3,26.1-11.3,35.3-2c9.2,9.2,8.3,24.9-2,35.3L257.2,224L421,387.8z"/>
</svg>
